<svg width="144" height="29" viewBox="0 0 144 29" fill="none" xmlns="http://www.w3.org/2000/svg">
<g clipPath="url(#clip0_101_447)">
<path d="M13.6984 13.9458C13.6984 17.5857 11.4508 21.4654 7.1833 21.4654C5.51276 21.4654 4.00928 20.8662 2.53617 19.593L1.57941 21.1059V2.36674C1.57941 1.36312 0.835267 1.13843 0.0607467 1.13843L0 0.91374L3.65999 0V9.16735C5.0116 8.16374 6.6062 7.6095 8.15524 7.6095C11.9064 7.6095 13.6984 10.7102 13.6984 13.9607V13.9458ZM3.65999 17.8703C3.72073 19.8027 5.07235 21.0909 7.03143 21.0909C10.1143 21.0909 11.7089 17.8703 11.7089 14.6648C11.7089 11.4592 10.1751 8.37345 7.03143 8.37345C5.84687 8.37345 4.66231 8.82283 3.65999 9.63171V17.8853V17.8703Z" fill="black"/>
<path d="M18.5887 19.578C18.5887 20.4318 19.2569 20.8512 20.0922 20.8512V21.0759H15.0198V20.8512C15.8247 20.8512 16.5233 20.4318 16.5233 19.578V2.36674C16.5233 1.36312 15.7792 1.13843 14.9895 1.13843L14.9287 0.91374L18.5887 0V19.578Z" fill="black"/>
<path d="M24.8153 19.5779C24.8153 20.4318 25.4835 20.8512 26.3187 20.8512V21.0759H21.2464V20.8512C22.0513 20.8512 22.7499 20.4318 22.7499 19.5779V9.96121C22.7499 8.95759 22.0057 8.7329 21.216 8.7329L21.1553 8.50821L24.8153 7.59447V19.5779ZM25.0431 3.92453C25.0431 4.7484 24.3748 5.40749 23.5396 5.40749C22.7043 5.40749 22.0057 4.7484 22.0057 3.92453C22.0057 3.10067 22.6739 2.41162 23.5396 2.41162C24.4052 2.41162 25.0431 3.07071 25.0431 3.92453Z" fill="black"/>
<path d="M40.9126 20.8512V21.0759H35.8403V20.8512C36.6452 20.8512 37.3438 20.4318 37.3438 19.578V13.0021C37.3438 11.0997 37.1767 8.59813 34.5798 8.59813C33.3952 8.59813 32.1044 9.25722 31.0565 10.3957V19.593C31.0565 20.4468 31.7247 20.8662 32.56 20.8662V21.0909H27.4876V20.8662C28.2925 20.8662 28.9911 20.4468 28.9911 19.593V9.97623C28.9911 9.12241 28.2469 8.74793 27.4572 8.74793L27.3965 8.52324L31.0565 7.6095V9.88636C32.4385 8.43336 34.0938 7.6095 35.6125 7.6095C37.3741 7.6095 38.7257 8.71797 39.1965 10.5754C39.3636 11.2944 39.4243 12.1333 39.4243 13.1369V19.593C39.4243 20.4468 40.0925 20.8662 40.9278 20.8662L40.9126 20.8512Z" fill="black"/>
<path d="M43.7372 21.3156C42.6741 21.8549 42.1578 22.7986 42.1578 23.8172C42.1578 25.9742 44.4662 27.547 47.6402 27.547C51.1938 27.547 53.5478 25.5848 53.5478 22.8735C53.5478 20.9412 52.3328 20.4319 50.7231 20.4319C48.9007 20.4319 46.5467 21.091 44.8154 21.091C44.4054 21.091 44.0409 21.061 43.722 20.9711C42.2185 20.5367 41.8996 19.0388 42.9779 17.7206C43.4942 17.1214 44.1624 16.7469 44.7395 16.4623C41.1555 14.0357 42.2033 7.57959 47.9135 7.57959C48.7792 7.57959 49.5233 7.7144 50.1915 7.98403L51.3761 7.57959H55.0361L54.8083 8.2986H50.8294C54.7475 10.5455 53.7452 17.3461 47.9135 17.3461C46.8201 17.3461 45.8633 17.1214 45.1192 16.687C44.5725 16.9117 43.9042 17.3162 43.555 17.7056C42.9171 18.4396 42.9171 19.2635 44.0105 19.2934H44.1017C45.2862 19.2934 47.7313 18.5594 49.903 18.5594C52.0747 18.5594 54.0034 19.3234 54.0034 22.3492C54.0034 26.2139 50.8901 28.9851 46.5619 28.9851C43.0993 28.9851 40.6543 27.2175 40.6543 24.686C40.6543 23.1431 41.5807 22.0646 43.6916 21.1059L43.7827 21.3007L43.7372 21.3156ZM47.8983 17.0166C52.2265 17.0166 52.2569 7.93909 47.8983 7.93909C43.5398 7.93909 43.5701 17.0166 47.8983 17.0166Z" fill="black"/>
<path d="M75.4777 17.7355C75.7966 18.14 76.0547 18.4695 76.1914 18.6792C77.0267 19.7877 78.0746 21.1059 79.0465 21.1059V21.3306C78.6365 21.4205 78.272 21.4504 77.8923 21.4504C76.1003 21.4504 75.265 20.6565 74.2324 19.3683L74.202 19.3383C72.7896 20.7314 70.8305 21.4654 68.4614 21.4654C64.2851 21.4654 61.3389 19.1286 61.3389 15.7433C61.3389 12.358 64.2547 10.9948 67.1098 9.63171C66.2138 8.1188 65.1507 6.15651 65.09 4.38895C64.9989 1.82748 67.1402 0 70.056 0C72.6833 0 74.5209 1.453 74.5816 3.53512C74.6424 6.50103 71.9544 7.71436 69.2208 9.0625C70.7546 11.3993 73.6401 15.234 75.2195 17.376C75.4169 17.0015 75.5991 16.5821 75.7662 16.1477C76.7533 13.6761 76.3129 11.9685 74.7031 11.9685V11.7738H78.9098V11.9685C77.3001 11.9685 76.6622 14.9344 76.0548 16.4923C75.8877 16.9117 75.6751 17.3461 75.4777 17.7505V17.7355ZM67.3376 10.0511C65.2267 11.2495 63.4954 12.7774 63.4802 15.6085C63.4194 18.7991 65.6215 20.8962 69.1296 20.8962C71.0583 20.8962 72.7441 20.267 73.9742 19.0238C72.3948 17.0315 69.3574 13.3017 67.3376 10.0661V10.0511ZM72.7441 3.58006C72.7137 1.55785 71.6202 0.359504 69.7675 0.359504C67.9147 0.359504 66.7149 1.55785 66.7605 3.2655C66.7909 4.91322 68.0666 7.30992 68.9778 8.67304C71.0583 7.53461 72.7592 6.14153 72.7289 3.58006H72.7441Z" fill="black"/>
<path d="M86.5645 17.2711L86.7619 17.2412C87.6275 19.4581 89.3588 21.0759 91.4394 21.0759C93.0492 21.0759 94.2337 20.0723 94.2337 18.5444C94.2337 17.1213 93.201 16.1776 89.8751 14.44C88.7513 13.8409 86.61 12.6725 86.61 10.7102C86.61 8.74789 88.6298 7.48962 91.4546 7.48962C93.034 7.48962 94.7653 7.89407 95.6613 8.46328L95.722 11.3094H95.5246C94.7197 9.3171 93.1251 7.86411 90.9686 7.86411C89.4044 7.86411 88.3717 8.5981 88.3717 9.8264C88.3717 11.0547 89.4044 11.9385 92.5328 13.5263C93.7781 14.1554 95.9954 15.2339 95.9954 17.6756C95.9954 19.9824 94.0059 21.4354 91.1812 21.4354C89.541 21.4354 87.6275 20.956 86.6252 20.3269L86.5645 17.2562V17.2711Z" fill="black"/>
<path d="M110.604 20.8512V21.0759H105.532V20.8512C106.337 20.8512 107.035 20.4318 107.035 19.578V13.0021C107.035 11.0997 106.868 8.59814 104.271 8.59814C103.087 8.59814 101.796 9.25723 100.748 10.3957V19.593C100.748 20.4468 101.416 20.8662 102.251 20.8662V21.0909H97.179V20.8662C97.9839 20.8662 98.6825 20.4468 98.6825 19.593V2.36674C98.6825 1.51291 97.9383 1.13843 97.1486 1.13843L97.0879 0.91374L100.748 0V9.87138C102.13 8.41839 103.785 7.59452 105.304 7.59452C107.066 7.59452 108.417 8.70299 108.888 10.5604C109.055 11.2794 109.116 12.1183 109.116 13.1219V19.578C109.116 20.4318 109.784 20.8512 110.619 20.8512H110.604Z" fill="black"/>
<path d="M115.328 19.5779C115.328 20.4318 115.996 20.8512 116.831 20.8512V21.0759H111.759V20.8512C112.564 20.8512 113.263 20.4318 113.263 19.5779V9.96121C113.263 8.95759 112.518 8.7329 111.729 8.7329L111.668 8.50821L115.328 7.59447V19.5779ZM115.556 3.92453C115.556 4.7484 114.888 5.40749 114.052 5.40749C113.217 5.40749 112.518 4.7484 112.518 3.92453C112.518 3.10067 113.187 2.41162 114.052 2.41162C114.918 2.41162 115.556 3.07071 115.556 3.92453Z" fill="black"/>
<path d="M131.425 20.8512V21.0759H126.353V20.8512C127.158 20.8512 127.856 20.4318 127.856 19.578V13.0021C127.856 11.0997 127.689 8.59813 125.092 8.59813C123.908 8.59813 122.617 9.25722 121.569 10.3957V19.593C121.569 20.4468 122.237 20.8662 123.073 20.8662V21.0909H118V20.8662C118.805 20.8662 119.504 20.4468 119.504 19.593V9.97623C119.504 9.12241 118.76 8.74793 117.97 8.74793L117.909 8.52324L121.569 7.6095V9.88636C122.951 8.43336 124.607 7.6095 126.125 7.6095C127.887 7.6095 129.238 8.71797 129.709 10.5754C129.876 11.2944 129.937 12.1333 129.937 13.1369V19.593C129.937 20.4468 130.605 20.8662 131.441 20.8662L131.425 20.8512Z" fill="black"/>
<path d="M143.954 17.9901C142.8 20.1771 140.75 21.4653 138.472 21.4653C135.009 21.4653 132.579 18.5594 132.762 14.5449C132.959 10.1859 136.103 7.59448 139.398 7.59448C142.056 7.59448 143.787 9.30213 143.985 12.0883C144.045 12.6575 144.015 12.6875 143.407 12.6875H134.903C134.842 13.1368 134.781 13.6312 134.781 14.1105C134.781 17.3011 136.315 20.5666 139.398 20.5666C141.038 20.5666 142.663 19.6229 143.757 17.8403L143.954 17.9901ZM139.079 7.99892C136.801 7.99892 135.419 9.96122 134.948 12.328H141.433C141.919 12.328 141.98 12.328 141.949 11.8486C141.798 9.25719 140.886 8.0139 139.064 8.0139L139.079 7.99892Z" fill="black"/>
</g>
<defs>
<clipPath id="clip0_101_447">
<rect width="144" height="29" fill="white"/>
</clipPath>
</defs>
</svg>
