<svg width="144" height="29" viewBox="0 0 144 29" fill="none" xmlns="http://www.w3.org/2000/svg">
<g clip-path="url(#clip0_57_393)">
<path d="M13.6984 13.9458C13.6984 17.5857 11.4508 21.4654 7.1833 21.4654C5.51276 21.4654 4.00928 20.8662 2.53617 19.593L1.57941 21.1059V2.36674C1.57941 1.36312 0.835267 1.13843 0.0607467 1.13843L0 0.91374L3.65999 0V9.16735C5.0116 8.16374 6.6062 7.6095 8.15524 7.6095C11.9064 7.6095 13.6984 10.7102 13.6984 13.9607V13.9458ZM3.65999 17.8703C3.72073 19.8027 5.07235 21.0909 7.03143 21.0909C10.1143 21.0909 11.7089 17.8703 11.7089 14.6648C11.7089 11.4592 10.1751 8.37345 7.03143 8.37345C5.84687 8.37345 4.66231 8.82283 3.65999 9.63171V17.8853V17.8703Z" fill="black"/>
<path d="M18.5885 19.578C18.5885 20.4318 19.2567 20.8512 20.0919 20.8512V21.0759H15.0196V20.8512C15.8245 20.8512 16.5231 20.4318 16.5231 19.578V2.36674C16.5231 1.36312 15.7789 1.13843 14.9892 1.13843L14.9285 0.91374L18.5885 0V19.578Z" fill="black"/>
<path d="M24.815 19.5779C24.815 20.4318 25.4832 20.8512 26.3185 20.8512V21.0759H21.2461V20.8512C22.051 20.8512 22.7496 20.4318 22.7496 19.5779V9.96121C22.7496 8.95759 22.0055 8.7329 21.2158 8.7329L21.155 8.50821L24.815 7.59447V19.5779ZM25.0428 3.92453C25.0428 4.7484 24.3746 5.40749 23.5393 5.40749C22.7041 5.40749 22.0055 4.7484 22.0055 3.92453C22.0055 3.10067 22.6737 2.41162 23.5393 2.41162C24.405 2.41162 25.0428 3.07071 25.0428 3.92453Z" fill="black"/>
<path d="M40.9129 20.8512V21.0759H35.8405V20.8512C36.6454 20.8512 37.344 20.4318 37.344 19.578V13.0021C37.344 11.0997 37.1769 8.59813 34.58 8.59813C33.3955 8.59813 32.1046 9.25722 31.0567 10.3957V19.593C31.0567 20.4468 31.7249 20.8662 32.5602 20.8662V21.0909H27.4878V20.8662C28.2927 20.8662 28.9913 20.4468 28.9913 19.593V9.97623C28.9913 9.12241 28.2472 8.74793 27.4575 8.74793L27.3967 8.52324L31.0567 7.6095V9.88636C32.4387 8.43336 34.0941 7.6095 35.6127 7.6095C37.3744 7.6095 38.726 8.71797 39.1968 10.5754C39.3638 11.2944 39.4246 12.1333 39.4246 13.1369V19.593C39.4246 20.4468 40.0928 20.8662 40.9281 20.8662L40.9129 20.8512Z" fill="black"/>
<path d="M43.7376 21.3156C42.6745 21.8549 42.1581 22.7986 42.1581 23.8172C42.1581 25.9742 44.4665 27.547 47.6405 27.547C51.1942 27.547 53.5481 25.5848 53.5481 22.8735C53.5481 20.9412 52.3332 20.4319 50.7234 20.4319C48.901 20.4319 46.5471 21.091 44.8158 21.091C44.4058 21.091 44.0413 21.061 43.7224 20.9711C42.2189 20.5367 41.9 19.0388 42.9782 17.7206C43.4946 17.1214 44.1628 16.7469 44.7399 16.4623C41.1558 14.0357 42.2037 7.57959 47.9139 7.57959C48.7795 7.57959 49.5237 7.7144 50.1919 7.98403L51.3765 7.57959H55.0364L54.8086 8.2986H50.8297C54.7479 10.5455 53.7456 17.3461 47.9139 17.3461C46.8204 17.3461 45.8637 17.1214 45.1195 16.687C44.5728 16.9117 43.9046 17.3162 43.5553 17.7056C42.9175 18.4396 42.9175 19.2635 44.0109 19.2934H44.102C45.2866 19.2934 47.7317 18.5594 49.9033 18.5594C52.075 18.5594 54.0037 19.3234 54.0037 22.3492C54.0037 26.2139 50.8905 28.9851 46.5623 28.9851C43.0997 28.9851 40.6547 27.2175 40.6547 24.686C40.6547 23.1431 41.581 22.0646 43.692 21.1059L43.7831 21.3007L43.7376 21.3156ZM47.8987 17.0166C52.2269 17.0166 52.2573 7.93909 47.8987 7.93909C43.5401 7.93909 43.5705 17.0166 47.8987 17.0166Z" fill="black"/>
<path d="M75.4778 17.7355C75.7967 18.14 76.0549 18.4695 76.1916 18.6792C77.0268 19.7877 78.0747 21.1059 79.0466 21.1059V21.3306C78.6366 21.4205 78.2721 21.4504 77.8925 21.4504C76.1004 21.4504 75.2652 20.6565 74.2325 19.3683L74.2021 19.3383C72.7897 20.7314 70.8307 21.4654 68.4615 21.4654C64.2852 21.4654 61.339 19.1286 61.339 15.7433C61.339 12.358 64.2548 10.9948 67.1099 9.63171C66.2139 8.1188 65.1508 6.15651 65.0901 4.38895C64.999 1.82748 67.1403 0 70.0561 0C72.6834 0 74.521 1.453 74.5818 3.53512C74.6425 6.50103 71.9545 7.71436 69.2209 9.0625C70.7547 11.3993 73.6402 15.234 75.2196 17.376C75.417 17.0015 75.5993 16.5821 75.7663 16.1477C76.7535 13.6761 76.313 11.9685 74.7033 11.9685V11.7738H78.91V11.9685C77.3002 11.9685 76.6623 14.9344 76.0549 16.4923C75.8878 16.9117 75.6752 17.3461 75.4778 17.7505V17.7355ZM67.3377 10.0511C65.2268 11.2495 63.4955 12.7774 63.4803 15.6085C63.4196 18.7991 65.6216 20.8962 69.1298 20.8962C71.0585 20.8962 72.7442 20.267 73.9743 19.0238C72.3949 17.0315 69.3576 13.3017 67.3377 10.0661V10.0511ZM72.7442 3.58006C72.7138 1.55785 71.6204 0.359504 69.7676 0.359504C67.9148 0.359504 66.7151 1.55785 66.7606 3.2655C66.791 4.91322 68.0667 7.30992 68.9779 8.67304C71.0585 7.53461 72.7594 6.14153 72.729 3.58006H72.7442Z" fill="black"/>
<path d="M86.564 17.2711L86.7614 17.2412C87.627 19.4581 89.3583 21.0759 91.4389 21.0759C93.0487 21.0759 94.2332 20.0723 94.2332 18.5444C94.2332 17.1213 93.2005 16.1776 89.8747 14.44C88.7508 13.8409 86.6095 12.6725 86.6095 10.7102C86.6095 8.74789 88.6294 7.48962 91.4541 7.48962C93.0335 7.48962 94.7648 7.89407 95.6608 8.46328L95.7215 11.3094H95.5241C94.7192 9.3171 93.1246 7.86411 90.9681 7.86411C89.4039 7.86411 88.3712 8.5981 88.3712 9.8264C88.3712 11.0547 89.4039 11.9385 92.5323 13.5263C93.7776 14.1554 95.9949 15.2339 95.9949 17.6756C95.9949 19.9824 94.0054 21.4354 91.1807 21.4354C89.5406 21.4354 87.627 20.956 86.6247 20.3269L86.564 17.2562V17.2711Z" fill="black"/>
<path d="M110.605 20.8512V21.0759H105.532V20.8512C106.337 20.8512 107.036 20.4318 107.036 19.578V13.0021C107.036 11.0997 106.869 8.59814 104.272 8.59814C103.087 8.59814 101.796 9.25723 100.748 10.3957V19.593C100.748 20.4468 101.417 20.8662 102.252 20.8662V21.0909H97.1795V20.8662C97.9844 20.8662 98.683 20.4468 98.683 19.593V2.36674C98.683 1.51291 97.9388 1.13843 97.1491 1.13843L97.0884 0.91374L100.748 0V9.87138C102.13 8.41839 103.786 7.59452 105.304 7.59452C107.066 7.59452 108.418 8.70299 108.888 10.5604C109.055 11.2794 109.116 12.1183 109.116 13.1219V19.578C109.116 20.4318 109.784 20.8512 110.62 20.8512H110.605Z" fill="black"/>
<path d="M115.328 19.5779C115.328 20.4318 115.996 20.8512 116.831 20.8512V21.0759H111.759V20.8512C112.564 20.8512 113.262 20.4318 113.262 19.5779V9.96121C113.262 8.95759 112.518 8.7329 111.728 8.7329L111.668 8.50821L115.328 7.59447V19.5779ZM115.555 3.92453C115.555 4.7484 114.887 5.40749 114.052 5.40749C113.217 5.40749 112.518 4.7484 112.518 3.92453C112.518 3.10067 113.186 2.41162 114.052 2.41162C114.918 2.41162 115.555 3.07071 115.555 3.92453Z" fill="black"/>
<path d="M131.425 20.8512V21.0759H126.353V20.8512C127.158 20.8512 127.857 20.4318 127.857 19.578V13.0021C127.857 11.0997 127.69 8.59813 125.093 8.59813C123.908 8.59813 122.617 9.25722 121.569 10.3957V19.593C121.569 20.4468 122.238 20.8662 123.073 20.8662V21.0909H118V20.8662C118.805 20.8662 119.504 20.4468 119.504 19.593V9.97623C119.504 9.12241 118.76 8.74793 117.97 8.74793L117.909 8.52324L121.569 7.6095V9.88636C122.951 8.43336 124.607 7.6095 126.125 7.6095C127.887 7.6095 129.239 8.71797 129.709 10.5754C129.876 11.2944 129.937 12.1333 129.937 13.1369V19.593C129.937 20.4468 130.605 20.8662 131.441 20.8662L131.425 20.8512Z" fill="black"/>
<path d="M143.954 17.9901C142.8 20.1771 140.75 21.4653 138.472 21.4653C135.009 21.4653 132.58 18.5594 132.762 14.5449C132.959 10.1859 136.103 7.59448 139.398 7.59448C142.056 7.59448 143.787 9.30213 143.985 12.0883C144.045 12.6575 144.015 12.6875 143.408 12.6875H134.903C134.842 13.1368 134.782 13.6312 134.782 14.1105C134.782 17.3011 136.315 20.5666 139.398 20.5666C141.039 20.5666 142.664 19.6229 143.757 17.8403L143.954 17.9901ZM139.079 7.99892C136.801 7.99892 135.419 9.96122 134.949 12.328H141.433C141.919 12.328 141.98 12.328 141.95 11.8486C141.798 9.25719 140.887 8.0139 139.064 8.0139L139.079 7.99892Z" fill="black"/>
</g>
<defs>
<clipPath id="clip0_57_393">
<rect width="144" height="29" fill="white"/>
</clipPath>
</defs>
</svg>
