<svg width="281" height="102" viewBox="0 0 281 102" fill="none" xmlns="http://www.w3.org/2000/svg">
<path d="M44.7589 37V36.415C46.1089 36.01 46.5589 34.975 46.5589 31.285V11.215C46.5589 7.525 46.1089 6.49 44.7589 6.085V5.5H52.0489V6.085C50.6539 6.49 50.2489 7.525 50.2489 11.215V31.285C50.2489 34.975 50.6539 36.01 52.0489 36.415V37H44.7589ZM56.0391 37V36.415C57.3891 36.01 57.8391 34.975 57.8391 31.285V7.435C57.8391 4.285 57.2541 3.835 56.0391 3.295V2.8L60.9441 0.639999L61.3491 0.954997V31.285C61.3491 34.975 61.7541 36.01 63.1491 36.415V37H56.0391ZM66.7178 37V36.415C68.0678 36.01 68.5178 34.975 68.5178 31.285V7.435C68.5178 4.285 67.9328 3.835 66.7178 3.295V2.8L71.6228 0.639999L72.0278 0.954997V31.285C72.0278 34.975 72.4328 36.01 73.8278 36.415V37H66.7178ZM85.4965 37.45C80.7715 37.45 78.6115 34.435 78.6115 29.26V20.935C78.6115 17.785 78.0265 17.335 76.8115 16.795V16.3L81.7165 14.14L82.1215 14.455V28.45C82.1215 33.58 83.5615 35.875 87.1615 35.875C89.8165 35.875 92.2465 34.21 94.2715 32.05V20.935C94.2715 17.785 93.6865 17.335 92.4715 16.795V16.3L97.3765 14.14L97.7815 14.455V31.285C97.7815 34.975 98.1865 36.01 99.5815 36.415V37H95.7565C94.7665 37 94.2715 36.505 94.2715 35.2V32.905C91.9765 35.29 88.8715 37.45 85.4965 37.45ZM102.615 37V36.415C104.01 36.01 104.415 34.975 104.415 31.285V20.935C104.415 17.785 103.83 17.335 102.615 16.795V16.3L107.52 14.14L107.925 14.455V18.28C110.625 16.12 114 14.185 117.24 14.185C120.57 14.185 122.685 15.535 123.495 18.415C126.195 16.255 129.66 14.185 133.035 14.185C137.4 14.185 139.65 16.57 139.65 21.655V31.285C139.65 34.975 140.1 36.01 141.45 36.415V37H134.34V36.415C135.735 36.01 136.14 34.975 136.14 31.285V22.465C136.14 18.01 134.52 15.67 131.01 15.67C128.445 15.67 126.105 17.065 123.63 19C123.81 19.765 123.9 20.665 123.9 21.655V31.285C123.9 34.975 124.305 36.01 125.7 36.415V37H118.59V36.415C119.94 36.01 120.39 34.975 120.39 31.285V22.465C120.39 18.01 118.725 15.67 115.26 15.67C112.695 15.67 110.355 17.065 107.925 18.91V31.285C107.925 34.975 108.33 36.01 109.725 36.415V37H102.615ZM143.836 37V36.415C145.231 36.01 145.636 34.975 145.636 31.285V20.935C145.636 17.785 145.096 17.335 143.836 16.795V16.3L148.786 14.14L149.146 14.455V31.285C149.146 34.975 149.596 36.01 150.946 36.415V37H143.836ZM144.646 8.92C144.646 7.48 145.726 6.4 147.121 6.4C148.561 6.4 149.596 7.48 149.596 8.92C149.596 10.27 148.516 11.395 147.121 11.395C145.726 11.395 144.646 10.27 144.646 8.92ZM153.943 37V36.415C155.338 36.01 155.743 34.975 155.743 31.285V20.935C155.743 17.785 155.203 17.335 153.943 16.795V16.3L158.893 14.14L159.253 14.455V18.325C161.863 16.21 165.328 14.185 168.793 14.185C173.203 14.185 175.903 16.75 175.903 22.015V31.285C175.903 34.975 176.308 36.01 177.703 36.415V37H170.593V36.415C171.988 36.01 172.393 34.975 172.393 31.285V22.915C172.393 18.235 170.413 15.67 166.453 15.67C163.978 15.67 161.548 17.155 159.253 19.045V31.285C159.253 34.975 159.703 36.01 161.053 36.415V37H153.943ZM197.637 37C196.737 37 196.287 36.505 196.287 35.65V27.55C194.892 33.085 191.112 37.45 186.657 37.45C183.327 37.45 180.357 35.425 180.357 31.555C180.357 26.875 185.082 25.12 190.437 23.635L196.287 22.06C196.062 17.695 193.812 15.67 189.987 15.67C187.287 15.67 184.677 16.93 182.427 19.675L182.022 19.315C184.587 16.12 187.872 14.185 191.787 14.185C197.232 14.185 199.752 17.2 199.752 22.285V31.285C199.752 34.975 200.157 36.01 201.552 36.415V37H197.637ZM183.732 30.295C183.732 33.22 185.757 34.795 188.322 34.795C193.137 34.795 196.242 28.72 196.287 23.995V22.735V22.645L190.617 24.175C187.287 25.12 183.687 26.605 183.732 30.295ZM211.15 37.45C208.315 37.45 206.605 35.695 206.605 31.015V15.13H203.725V14.5L209.485 8.965H210.115V14.5H216.955L216.73 15.13H210.115V31.015C210.115 34.075 211.375 35.245 213.31 35.245C214.57 35.245 216.145 34.66 217.63 32.905L218.035 33.31C216.1 35.515 213.805 37.45 211.15 37.45ZM229.651 37.45C224.701 37.45 218.986 33.85 218.986 26.425C218.986 19.09 224.521 14.185 230.821 14.185C236.491 14.185 239.776 17.875 239.911 22.15H222.316C222.226 22.825 222.181 23.5 222.181 24.22C222.181 30.385 226.006 34.615 231.856 34.615C235.321 34.615 237.796 33.04 239.866 30.7L240.271 31.105C237.976 34.255 234.466 37.45 229.651 37.45ZM222.451 21.565H236.311C235.861 18.55 233.431 14.995 229.336 14.995C225.511 14.95 223.171 17.785 222.451 21.565ZM3.36221 97.685C1.60721 97.73 0.302207 97.145 0.302207 96.425C0.302207 95.57 1.42721 93.95 3.09221 93.95C4.26221 93.95 6.69221 94.625 8.76221 94.985C10.3372 93.635 11.7322 91.43 12.8572 89.09L5.47721 71.765C4.08221 68.39 2.95721 67.49 2.01221 67.085V66.5H8.80721V67.085C7.45721 67.49 7.81721 68.39 9.25721 71.765L14.7922 84.635L20.3272 71.765C21.5872 68.84 21.4972 67.4 19.9222 67.085V66.5H24.9172V67.085C23.6572 67.49 22.4872 68.39 21.0022 71.765L14.0272 87.875C10.2022 96.695 6.24221 97.64 3.36221 97.685ZM36.6917 89.45C30.9767 89.45 24.9017 85.895 24.9017 78.065C24.9017 71.045 30.5267 66.185 36.6917 66.185C42.2717 66.185 48.4367 69.605 48.4367 77.615C48.4367 85.31 42.0017 89.45 36.6917 89.45ZM28.3667 75.5C28.3667 81.215 32.0567 88.505 38.0417 88.505C42.8567 88.505 45.0167 84.635 45.0167 80.27C45.0167 74.465 40.9217 66.725 35.0267 67.04C30.4367 67.22 28.3667 71 28.3667 75.5ZM60.1621 89.45C55.4371 89.45 53.2771 86.435 53.2771 81.26V72.935C53.2771 69.785 52.6921 69.335 51.4771 68.795V68.3L56.3821 66.14L56.7871 66.455V80.45C56.7871 85.58 58.2271 87.875 61.8271 87.875C64.4821 87.875 66.9121 86.21 68.9371 84.05V72.935C68.9371 69.785 68.3521 69.335 67.1371 68.795V68.3L72.0421 66.14L72.4471 66.455V83.285C72.4471 86.975 72.8521 88.01 74.2471 88.415V89H70.4221C69.4321 89 68.9371 88.505 68.9371 87.2V84.905C66.6421 87.29 63.5371 89.45 60.1621 89.45ZM77.2803 89V88.415C78.6753 88.01 79.0803 86.975 79.0803 83.285V72.935C79.0803 69.785 78.4953 69.335 77.2803 68.795V68.3L82.1853 66.14L82.5903 66.455V72.08C83.3103 70.325 84.5253 68.795 85.8753 67.805C87.2703 66.77 88.8453 66.185 91.0053 66.185C92.8053 66.185 93.9303 66.635 93.9303 67.4C93.9303 68.39 92.9403 69.965 91.3203 69.965C90.1053 69.965 88.3503 69.47 85.6953 68.705C84.3903 69.65 82.7703 72.17 82.6353 74.33H82.5903V83.285C82.5903 86.975 82.9953 88.01 84.3903 88.415V89H77.2803ZM116.47 89.45C111.52 89.45 105.805 85.85 105.805 78.425C105.805 71.09 111.34 66.185 117.64 66.185C123.31 66.185 126.595 69.875 126.73 74.15H109.135C109.045 74.825 109 75.5 109 76.22C109 82.385 112.825 86.615 118.675 86.615C122.14 86.615 124.615 85.04 126.685 82.7L127.09 83.105C124.795 86.255 121.285 89.45 116.47 89.45ZM109.27 73.565H123.13C122.68 70.55 120.25 66.995 116.155 66.995C112.33 66.95 109.99 69.785 109.27 73.565ZM129.845 89V88.415C131.195 88.01 131.645 86.975 131.645 83.285V59.435C131.645 56.285 131.06 55.835 129.845 55.295V54.8L134.75 52.64L135.155 52.955V83.285C135.155 86.975 135.56 88.01 136.955 88.415V89H129.845ZM151.099 89.45C146.149 89.45 140.434 85.85 140.434 78.425C140.434 71.09 145.969 66.185 152.269 66.185C157.939 66.185 161.224 69.875 161.359 74.15H143.764C143.674 74.825 143.629 75.5 143.629 76.22C143.629 82.385 147.454 86.615 153.304 86.615C156.769 86.615 159.244 85.04 161.314 82.7L161.719 83.105C159.424 86.255 155.914 89.45 151.099 89.45ZM143.899 73.565H157.759C157.309 70.55 154.879 66.995 150.784 66.995C146.959 66.95 144.619 69.785 143.899 73.565ZM170.115 101.465C166.695 101.465 162.78 99.98 162.78 95.93C162.78 93.095 165.075 90.8 168.72 88.595C166.695 88.1 165.435 87.155 165.435 85.22C165.435 83.555 166.92 82.43 168.72 81.26C166.47 80.09 164.76 78.02 164.76 74.69C164.76 69.965 169.035 66.185 173.67 66.185C174.75 66.185 175.92 66.32 176.955 66.635C177.405 66.05 177.945 65.465 178.53 65.015C179.88 63.8 181.5 62.99 183.66 62.99C185.055 62.99 186 63.395 186 64.07C186 64.835 185.055 66.365 183.435 66.365C182.31 66.365 181.005 65.96 178.98 65.33C178.485 65.69 177.99 66.23 177.54 66.86C180.285 67.85 182.535 70.055 182.535 73.925C182.535 79.1 177.36 82.385 173.67 82.385C172.275 82.385 170.7 82.115 169.305 81.53C168.315 82.205 167.685 82.655 167.685 83.51C167.73 84.725 169.215 85.445 172.635 85.625L178.305 85.985C182.85 86.255 185.505 86.885 185.505 90.395C185.505 95.525 177.54 101.465 170.115 101.465ZM165.795 94.265C165.795 97.505 168.495 99.44 172.68 99.44C178.44 99.44 183.75 95.84 183.75 92.285C183.75 90.17 181.995 89.54 178.26 89.315L171.96 89C171.06 88.955 170.205 88.865 169.395 88.73C166.785 90.485 165.795 92.33 165.795 94.265ZM168.045 72.71C168.045 76.625 170.385 81.665 174.525 81.665C177.855 81.665 179.295 79.01 179.295 75.95C179.295 71.9 176.685 66.635 172.59 66.86C169.395 66.995 168.045 69.56 168.045 72.71ZM203.152 89C202.252 89 201.802 88.505 201.802 87.65V79.55C200.407 85.085 196.627 89.45 192.172 89.45C188.842 89.45 185.872 87.425 185.872 83.555C185.872 78.875 190.597 77.12 195.952 75.635L201.802 74.06C201.577 69.695 199.327 67.67 195.502 67.67C192.802 67.67 190.192 68.93 187.942 71.675L187.537 71.315C190.102 68.12 193.387 66.185 197.302 66.185C202.747 66.185 205.267 69.2 205.267 74.285V83.285C205.267 86.975 205.672 88.01 207.067 88.415V89H203.152ZM189.247 82.295C189.247 85.22 191.272 86.795 193.837 86.795C198.652 86.795 201.757 80.72 201.802 75.995V74.735V74.645L196.132 76.175C192.802 77.12 189.202 78.605 189.247 82.295ZM209.6 89V88.415C210.995 88.01 211.4 86.975 211.4 83.285V72.935C211.4 69.785 210.86 69.335 209.6 68.795V68.3L214.55 66.14L214.91 66.455V70.325C217.52 68.21 220.985 66.185 224.45 66.185C228.86 66.185 231.56 68.75 231.56 74.015V83.285C231.56 86.975 231.965 88.01 233.36 88.415V89H226.25V88.415C227.645 88.01 228.05 86.975 228.05 83.285V74.915C228.05 70.235 226.07 67.67 222.11 67.67C219.635 67.67 217.205 69.155 214.91 71.045V83.285C214.91 86.975 215.36 88.01 216.71 88.415V89H209.6ZM246.724 89.45C241.504 89.45 236.059 85.67 236.059 78.425C236.059 71.315 241.729 66.185 248.299 66.185C252.619 66.185 255.949 67.4 255.949 68.615C255.949 69.65 254.554 71.045 253.114 71.045C251.989 71.045 249.874 69.74 246.274 66.905C242.089 67.625 239.254 71.36 239.254 76.22C239.254 82.385 243.079 86.615 248.929 86.615C252.394 86.615 254.869 85.04 256.939 82.7L257.344 83.105C255.049 86.255 251.539 89.45 246.724 89.45ZM270.103 89.45C265.153 89.45 259.438 85.85 259.438 78.425C259.438 71.09 264.973 66.185 271.273 66.185C276.943 66.185 280.228 69.875 280.363 74.15H262.768C262.678 74.825 262.633 75.5 262.633 76.22C262.633 82.385 266.458 86.615 272.308 86.615C275.773 86.615 278.248 85.04 280.318 82.7L280.723 83.105C278.428 86.255 274.918 89.45 270.103 89.45ZM262.903 73.565H276.763C276.313 70.55 273.883 66.995 269.788 66.995C265.963 66.95 263.623 69.785 262.903 73.565Z" fill="black"/>
</svg>
