<svg width="12" height="11" viewBox="0 0 12 11" fill="none" xmlns="http://www.w3.org/2000/svg">
<path d="M4.33007 5.5C4.33007 4.48752 5.15062 3.66654 6.1631 3.66654C7.17557 3.66654 7.99656 4.48752 7.99656 5.5C7.99656 6.51248 7.17557 7.33346 6.1631 7.33346C5.15062 7.33346 4.33007 6.51248 4.33007 5.5ZM3.33887 5.5C3.33887 7.0598 4.60325 8.32418 6.1631 8.32418C7.7229 8.32418 8.98727 7.0598 8.98727 5.5C8.98727 3.9402 7.7229 2.67582 6.1631 2.67582C4.60325 2.67582 3.33887 3.9402 3.33887 5.5ZM8.43904 2.56386C8.43904 2.92815 8.73451 3.22405 9.09923 3.22405C9.46353 3.22405 9.75943 2.92815 9.75943 2.56386C9.75943 2.19957 9.46396 1.9041 9.09923 1.9041C8.73451 1.9041 8.43904 2.19957 8.43904 2.56386ZM3.94086 9.97686C3.40463 9.95242 3.11323 9.86313 2.91948 9.78761C2.6627 9.68765 2.47967 9.56857 2.28689 9.37621C2.09448 9.18385 1.97501 9.00082 1.87549 8.74404C1.79997 8.55035 1.71068 8.2589 1.68624 7.72267C1.65955 7.14287 1.65424 6.96874 1.65424 5.5C1.65424 4.03126 1.66003 3.85756 1.68624 3.27733C1.71068 2.7411 1.8004 2.45013 1.87549 2.25596C1.97544 1.99918 2.09448 1.81615 2.28689 1.62336C2.47924 1.43096 2.66227 1.31149 2.91948 1.21196C3.11323 1.13644 3.40463 1.04715 3.94086 1.02271C4.52065 0.996026 4.69479 0.990717 6.1631 0.990717C7.63183 0.990717 7.80554 0.996504 8.38577 1.02271C8.92199 1.04715 9.21297 1.13687 9.40709 1.21196C9.66387 1.31149 9.84695 1.43096 10.0397 1.62336C10.2321 1.81572 10.3512 1.99918 10.4511 2.25596C10.5267 2.4497 10.6159 2.7411 10.6404 3.27733C10.667 3.85756 10.6724 4.03126 10.6724 5.5C10.6724 6.96831 10.667 7.14244 10.6404 7.72267C10.6159 8.2589 10.5262 8.55035 10.4511 8.74404C10.3512 9.00082 10.2321 9.18385 10.0397 9.37621C9.84738 9.56857 9.66387 9.68765 9.40709 9.78761C9.2134 9.86313 8.92199 9.95242 8.38577 9.97686C7.80597 10.0035 7.63183 10.0089 6.1631 10.0089C4.69479 10.0089 4.52065 10.0035 3.94086 9.97686ZM3.89557 0.0333203C3.31003 0.0599738 2.91016 0.152828 2.56055 0.288774C2.19889 0.429158 1.89237 0.61753 1.58628 0.923187C1.28061 1.22884 1.09224 1.53536 0.951855 1.89745C0.815909 2.24711 0.72306 2.64693 0.696406 3.23247C0.669303 3.81891 0.663086 4.00639 0.663086 5.5C0.663086 6.99361 0.669303 7.18109 0.696406 7.76753C0.72306 8.35307 0.815909 8.75289 0.951855 9.10255C1.09224 9.46416 1.28017 9.77116 1.58628 10.0768C1.89194 10.3825 2.19846 10.5704 2.56055 10.7112C2.91063 10.8472 3.31003 10.94 3.89557 10.9667C4.48244 10.9934 4.66949 11 6.1631 11C7.65713 11 7.84418 10.9938 8.43063 10.9667C9.01616 10.94 9.41599 10.8472 9.76564 10.7112C10.1273 10.5704 10.4338 10.3825 10.7399 10.0768C11.0456 9.77116 11.2335 9.46416 11.3743 9.10255C11.5102 8.75289 11.6036 8.35307 11.6298 7.76753C11.6564 7.18066 11.6626 6.99361 11.6626 5.5C11.6626 4.00639 11.6564 3.81891 11.6298 3.23247C11.6031 2.64693 11.5102 2.24711 11.3743 1.89745C11.2335 1.53584 11.0456 1.22927 10.7399 0.923187C10.4343 0.61753 10.1273 0.429158 9.76607 0.288774C9.41599 0.152828 9.01616 0.0595338 8.43106 0.0333203C7.84461 0.00666204 7.65714 0 6.16353 0C4.66949 0 4.48244 0.00621726 3.89557 0.0333203Z" fill="black"/>
</svg>
