<svg width="12" height="11" viewBox="0 0 12 11" fill="none" xmlns="http://www.w3.org/2000/svg">
<g clip-path="url(#clip0_626_866)">
<path d="M3.22358 3.53906H1.01531C0.917304 3.53906 0.837891 3.61851 0.837891 3.71648V10.8107C0.837891 10.9087 0.917304 10.9881 1.01531 10.9881H3.22358C3.32158 10.9881 3.401 10.9087 3.401 10.8107V3.71648C3.401 3.61851 3.32158 3.53906 3.22358 3.53906Z" fill="black"/>
<path d="M2.12027 0.012207C1.31677 0.012207 0.663086 0.665181 0.663086 1.46779C0.663086 2.27076 1.31677 2.92398 2.12027 2.92398C2.92312 2.92398 3.57628 2.27072 3.57628 1.46779C3.57631 0.665181 2.92312 0.012207 2.12027 0.012207Z" fill="black"/>
<path d="M8.84053 3.36279C7.95361 3.36279 7.29797 3.74407 6.90031 4.17729V3.71653C6.90031 3.61856 6.82089 3.53911 6.72289 3.53911H4.60808C4.51008 3.53911 4.43066 3.61856 4.43066 3.71653V10.8108C4.43066 10.9088 4.51008 10.9882 4.60808 10.9882H6.81153C6.90953 10.9882 6.98894 10.9088 6.98894 10.8108V7.30076C6.98894 6.11797 7.31022 5.65718 8.13472 5.65718C9.03267 5.65718 9.10403 6.39588 9.10403 7.36161V10.8108C9.10403 10.9088 9.18344 10.9882 9.28145 10.9882H11.4857C11.5837 10.9882 11.6631 10.9088 11.6631 10.8108V6.91948C11.6631 5.16072 11.3278 3.36279 8.84053 3.36279Z" fill="black"/>
</g>
<defs>
<clipPath id="clip0_626_866">
<rect width="11" height="11" fill="white" transform="translate(0.663086)"/>
</clipPath>
</defs>
</svg>
