<svg width="28" height="28" viewBox="0 0 28 28" fill="none" xmlns="http://www.w3.org/2000/svg">
<path fill-rule="evenodd" clip-rule="evenodd" d="M5.08635 5.90415C5.08868 5.90415 5.03035 5.96481 4.95685 6.03715C4.67451 6.31131 4.09001 6.88181 4.08412 8.07531C4.07485 9.74481 5.17268 12.8446 10.4588 18.1296C15.7205 23.389 18.8157 24.4996 20.4887 24.4996H20.5132C21.7067 24.4938 22.276 23.9081 22.5513 23.627C22.6353 23.5406 22.703 23.4776 22.7508 23.438C23.9128 22.269 24.5079 21.3986 24.5021 20.841C24.4939 20.2716 23.7857 19.5985 22.8068 18.6675C22.4953 18.3711 22.157 18.0491 21.8 17.6921C20.8748 16.7693 20.4163 16.9268 19.4083 17.2815C18.0142 17.7703 16.1008 18.4353 13.1282 15.4615C10.1508 12.4865 10.817 10.5755 11.3047 9.18131C11.657 8.17331 11.818 7.71365 10.8917 6.78731C10.5288 6.42565 10.2033 6.08265 9.90351 5.76765C8.97835 4.79465 8.31101 4.09115 7.74518 4.08298H7.73585C7.17701 4.08298 6.30901 4.68031 5.08051 5.90881C5.08401 5.90531 5.08635 5.90415 5.08635 5.90415ZM20.4898 26.2496C17.5825 26.2496 13.792 23.935 9.22218 19.3675C4.63485 14.7813 2.31668 10.9791 2.33408 8.06598C2.34468 6.14098 3.35385 5.15515 3.73301 4.78531C3.75285 4.76081 3.82051 4.69431 3.84385 4.67098C5.51685 2.99681 6.64501 2.32015 7.76735 2.3328C9.07051 2.35048 9.99801 3.32581 11.1717 4.56131C11.4622 4.86698 11.7772 5.19948 12.1283 5.54948C13.8317 7.25281 13.3463 8.64231 12.9567 9.75765C12.532 10.9745 12.1645 12.0245 14.3648 14.2248C16.5675 16.4251 17.6175 16.0576 18.8297 15.6295C19.9462 15.2398 21.3322 14.7521 23.0378 16.4555C23.3832 16.8008 23.711 17.1123 24.0132 17.4005C25.2545 18.58 26.2345 19.5121 26.2511 20.8188C26.2648 21.933 25.5882 23.0681 23.9175 24.74L23.1778 24.2383L23.8032 24.8496C23.4333 25.2288 22.4487 26.2391 20.5225 26.2496H20.4898Z" fill="black" fill-opacity="0.5"/>
</svg>
