<svg width="28" height="28" viewBox="0 0 28 28" fill="none" xmlns="http://www.w3.org/2000/svg">
<path d="M19.4622 24.3255H9.12082C8.33283 24.3364 7.55065 24.1891 6.82061 23.8923C6.09055 23.5956 5.42749 23.1553 4.87066 22.5976C4.23115 21.936 3.72924 21.1541 3.394 20.2972C3.05877 19.4403 2.89686 18.5254 2.91765 17.6055V10.399C2.86638 9.54478 2.98843 8.68905 3.27647 7.88327C3.56451 7.07749 4.01257 6.3383 4.59371 5.71019C5.17485 5.08208 5.87704 4.57802 6.65805 4.22834C7.43905 3.87866 8.28274 3.6906 9.13832 3.67545H19.447C20.3025 3.6906 21.1463 3.87866 21.9272 4.22834C22.7083 4.57802 23.4104 5.08208 23.9916 5.71019C24.5728 6.3383 25.0208 7.07749 25.3088 7.88327C25.5969 8.68905 25.7189 9.54478 25.6677 10.399V17.6055C25.6879 18.5246 25.5256 19.4387 25.1904 20.2948C24.8552 21.1507 24.3535 21.9319 23.7147 22.593C23.1579 23.1517 22.4946 23.5929 21.7641 23.8905C21.0337 24.1881 20.2508 24.3361 19.4622 24.3255ZM9.13598 22.5755H19.4598C20.0188 22.5851 20.574 22.4825 21.0925 22.2734C21.6109 22.0645 22.082 21.7533 22.478 21.3586C22.954 20.8592 23.3264 20.2704 23.5735 19.6261C23.8206 18.9819 23.9376 18.2952 23.9177 17.6055V10.399C23.9177 7.51729 22.0382 5.42545 19.447 5.42545H9.13832C6.54715 5.42545 4.66765 7.51729 4.66765 10.399V17.6055C4.64833 18.2944 4.76559 18.9803 5.01269 19.6237C5.25978 20.267 5.63182 20.8551 6.10732 21.354C6.5029 21.7484 6.97368 22.0593 7.49175 22.2684C8.00981 22.4775 8.5646 22.5802 9.12315 22.5708L9.13598 22.5755Z" fill="black" fill-opacity="0.5"/>
<path d="M14.3228 15.8892C13.5804 15.8887 12.8601 15.6362 12.28 15.1728L7.56898 11.3753C7.38827 11.2296 7.27287 11.018 7.24814 10.7872C7.22342 10.5564 7.2914 10.3252 7.43714 10.1445C7.58288 9.9638 7.79444 9.84839 8.02526 9.82367C8.25609 9.79894 8.48727 9.86693 8.66798 10.0127L13.3732 13.8067C13.6441 14.0232 13.9807 14.1413 14.3275 14.1413C14.6744 14.1413 15.0109 14.0232 15.2818 13.8067L19.9392 10.0197C20.1192 9.87315 20.3502 9.80418 20.5811 9.82792C20.812 9.85166 21.0241 9.96617 21.1706 10.1462C21.3171 10.3263 21.3861 10.5572 21.3623 10.7882C21.3386 11.0191 21.224 11.2312 21.044 11.3777L16.3773 15.1717C15.7933 15.6362 15.069 15.8892 14.3228 15.8892Z" fill="black" fill-opacity="0.5"/>
</svg>
