<svg width="28" height="28" viewBox="0 0 28 28" fill="none" xmlns="http://www.w3.org/2000/svg">
<path fill-rule="evenodd" clip-rule="evenodd" d="M14.291 2.33333C19.5982 2.33333 23.916 6.68383 23.916 12.0318C23.916 18.606 16.384 25.0833 14.291 25.0833C12.198 25.0833 4.66602 18.606 4.66602 12.0318C4.66602 6.68383 8.98385 2.33333 14.291 2.33333ZM14.291 4.08333C9.94868 4.08333 6.41602 7.64983 6.41602 12.0318C6.41602 17.6073 12.9773 23.0393 14.291 23.3287C15.6047 23.0382 22.166 17.6062 22.166 12.0318C22.166 7.64983 18.6333 4.08333 14.291 4.08333ZM14.2922 8.16666C16.3828 8.16666 18.0838 9.86766 18.0838 11.9595C18.0838 14.0502 16.3828 15.75 14.2922 15.75C12.2015 15.75 10.5005 14.0502 10.5005 11.9595C10.5005 9.86766 12.2015 8.16666 14.2922 8.16666ZM14.2922 9.91666C13.1663 9.91666 12.2505 10.8325 12.2505 11.9595C12.2505 13.0853 13.1663 14 14.2922 14C15.418 14 16.3338 13.0853 16.3338 11.9595C16.3338 10.8325 15.418 9.91666 14.2922 9.91666Z" fill="black" fill-opacity="0.5"/>
</svg>
